<svg width="78" height="67" viewBox="0 0 78 67" fill="none" xmlns="http://www.w3.org/2000/svg">
<path d="M0.742188 66.4887C1.26377 56.5241 5.58977 47.1397 12.8278 40.2711C20.0659 33.4026 29.6639 29.5739 39.6422 29.5747C40.8262 29.5747 41.9952 29.6367 43.1522 29.7397C47.7023 21.9119 54.2265 15.4149 62.0732 10.8974C69.9199 6.38002 78.8145 4.00035 87.8687 3.9961C96.9228 3.99185 105.82 6.36316 113.671 10.8732C121.522 15.3833 128.052 21.8742 132.609 29.6977C133.585 29.6247 134.567 29.5747 135.562 29.5747C145.54 29.5739 155.139 33.4026 162.377 40.2711C169.615 47.1397 173.941 56.5241 174.462 66.4887" fill="#F2F2F2"/>
<path d="M8.85156 63.4926C9.37315 53.528 13.6991 44.1436 20.9371 37.275C28.1752 30.4065 37.7732 26.5778 47.7515 26.5786C48.9355 26.5786 50.1045 26.6406 51.2615 26.7436C55.8116 18.9158 62.3358 12.4188 70.1825 7.90134C78.0292 3.38392 86.9238 1.00426 95.978 1.00001C105.032 0.995755 113.929 3.36706 121.78 7.87711C129.631 12.3872 136.161 18.8781 140.719 26.7016C141.695 26.6286 142.677 26.5786 143.672 26.5786C153.65 26.5778 163.248 30.4065 170.486 37.275C177.724 44.1436 182.05 53.528 182.572 63.4926" stroke="#3F3D56" stroke-miterlimit="10"/>
</svg>
