<svg width="937" height="788" viewBox="0 0 937 788" fill="none" xmlns="http://www.w3.org/2000/svg">
<path d="M373.886 12.1225C419.638 2.87116 597.414 18.7014 612.503 49.7011C627.591 80.7008 471.258 43.2324 413.262 46.9466C355.265 50.6608 316.61 62.1695 295.395 55.0499C274.18 47.9303 328.136 21.3738 373.886 12.1225Z" fill="#FAEC57"/>
<path opacity="0.299" d="M388.222 3.02334C433.974 -6.22796 611.75 9.60224 626.838 40.6019C641.927 71.6016 485.594 34.1333 427.598 37.8475C369.601 41.5617 330.946 53.0704 309.731 45.9508C288.516 38.8312 342.472 12.2747 388.222 3.02334Z" fill="#FAEC57"/>
<path d="M93.4878 635.369C121.794 667.33 146.841 682.816 133.404 699.545C119.966 716.274 27.0622 735.853 6.86596 691.663C-13.3303 647.472 21.2468 499.099 52.6181 522.784C83.9895 546.47 65.1827 603.408 93.4878 635.369Z" fill="#9974FF"/>
<path opacity="0.299" d="M105.777 632.233C134.083 664.194 159.13 679.68 145.693 696.409C132.255 713.138 39.3512 732.717 19.155 688.527C-1.04121 644.336 33.5358 495.963 64.9072 519.648C96.2786 543.334 77.4718 600.271 105.777 632.233Z" fill="#9974FF"/>
<path opacity="0.3" d="M319.432 732.663C141.187 679.892 -10.2392 399.313 41.7482 223.713C93.7357 48.1134 666.445 59.0392 786.39 177.099C906.336 295.158 644.663 387.583 592.675 563.182C540.688 738.782 497.677 785.433 319.432 732.663Z" fill="#52379D"/>
<path d="M235.122 705.166C76.2123 608.71 1.29538 298.804 96.3197 142.252C191.344 -14.2988 742.356 142.228 828.252 286.958C914.148 431.688 637.56 454.371 542.536 610.922C447.512 767.473 394.031 801.622 235.122 705.166Z" fill="#52379D"/>
<path d="M728.111 786.694C792.207 773.748 767.67 666.399 874.782 574.893C981.893 483.386 1029.71 508.007 1070.55 451.759C1111.4 395.51 938.559 258.261 894.856 297.852C851.154 337.444 915.489 397.408 808.379 488.914C701.269 580.419 628.537 513.992 604.164 598.068C579.791 682.144 664.015 799.639 728.111 786.694Z" fill="#FAEC57"/>
<path d="M701.681 774.796C766.794 768.778 753.876 659.421 870.157 579.891C986.438 500.361 1031.35 529.954 1077.97 478.395C1124.6 426.835 967.422 271.893 919.737 306.585C872.052 341.277 929.607 407.776 813.327 487.305C697.048 566.834 631.835 493.012 598.613 574C565.39 654.987 636.569 780.814 701.681 774.796Z" fill="#FAEC57" fill-opacity="0.2"/>
<path d="M783.853 37.6089C804.944 26.9272 816.753 15.6808 823.83 25.2253C830.908 34.7697 828.369 87.2852 801.863 91.9075C775.357 96.5298 700.721 57.1995 717.809 43.715C734.897 30.2305 762.762 48.2901 783.853 37.6089Z" fill="#9974FF"/>
<path opacity="0.299" d="M783.892 30.5864C804.983 19.9048 816.792 8.65835 823.87 18.2028C830.947 27.7472 828.408 80.2627 801.902 84.885C775.396 89.5073 700.76 50.1771 717.848 36.6926C734.936 23.2081 762.801 41.2677 783.892 30.5864Z" fill="#9974FF"/>
</svg>
