<svg width="697" height="271" viewBox="0 0 697 271" fill="none" xmlns="http://www.w3.org/2000/svg">
<path opacity="0.4" d="M201.496 57.0042C185.892 57.0042 173.242 44.4368 173.242 28.9342C173.242 13.4316 185.892 0.864258 201.496 0.864258C217.1 0.864258 229.75 13.4316 229.75 28.9342C229.75 44.4368 217.1 57.0042 201.496 57.0042Z" fill="#FAEC57"/>
<path opacity="0.4" d="M253.789 62.0316C242.842 62.0316 233.968 53.2158 233.968 42.341C233.968 31.4662 242.842 22.6504 253.789 22.6504C264.735 22.6504 273.609 31.4662 273.609 42.341C273.609 53.2158 264.735 62.0316 253.789 62.0316Z" fill="#FAEC57"/>
<path opacity="0.4" d="M466.273 118.623C455.326 118.623 446.452 109.808 446.452 98.9328C446.452 88.058 455.326 79.2422 466.273 79.2422C477.22 79.2422 486.094 88.058 486.094 98.9328C486.094 109.808 477.22 118.623 466.273 118.623Z" fill="#FAEC57"/>
<path d="M603.311 261.171C601.779 266.796 596.534 270.279 596.534 270.279C596.534 270.279 593.77 264.643 595.3 259.019C596.83 253.394 602.078 249.91 602.078 249.91C602.078 249.91 604.842 255.545 603.311 261.171Z" fill="#3F3D56"/>
<path d="M601.063 259.961C596.861 264.026 596.347 270.28 596.347 270.28C596.347 270.28 602.648 269.944 606.851 265.873C611.053 261.803 611.57 255.555 611.57 255.555C611.57 255.555 605.266 255.899 601.063 259.961Z" fill="#9974FF"/>
<path d="M592.908 218.888L596.648 212.695L561.733 182.963H471.951V191.634L504.372 226.321L541.783 233.76L592.908 218.888Z" fill="#3F3F41"/>
<path d="M456.498 200.409V181.027H468.253V187.14L471.954 182.963L501.886 212.694L506.875 217.649L513.102 242.427L501.886 269.682H444.525V213.939L456.498 200.409Z" fill="#CCCCCC"/>
<path d="M501.879 212.694H596.648V269.68H501.879V212.694Z" fill="#F2F2F2"/>
<path d="M514.978 230.656H534.93V247.999H514.978V230.656Z" fill="#3F3D56"/>
<path d="M543.035 230.037H560.492V269.68H543.035V230.037Z" fill="#CCCCCC"/>
<path d="M580.441 236.231V230.037H587.922V236.231H580.441Z" fill="#3F3D56"/>
<path d="M581.064 241.186H587.922V247.38H580.441V241.186H581.064Z" fill="#3F3D56"/>
<path d="M567.971 230.037H575.453V236.232H567.971V230.037Z" fill="#3F3D56"/>
<path d="M567.971 241.187H575.453V247.381H567.971V241.187Z" fill="#3F3D56"/>
<path d="M475.073 236.851V230.652H482.555V236.847H475.073V236.851Z" fill="#3F3D56"/>
<path d="M475.696 241.806H482.555V247.999H475.073V241.806H475.696Z" fill="#3F3D56"/>
<path d="M462.604 230.656H470.086V236.851H462.604V230.656Z" fill="#3F3D56"/>
<path d="M462.604 241.806H470.086V248H462.604V241.806Z" fill="#3F3D56"/>
<path d="M232.135 218.888L235.875 212.695L200.96 182.963H111.178V191.634L143.599 226.321L181.009 233.76L232.135 218.888Z" fill="#3F3D56"/>
<path d="M95.7183 200.409V181.027H107.473V187.14L111.174 182.963L141.104 212.694L146.093 217.649L152.32 242.427L141.104 269.682H83.7443V213.939L95.7183 200.409Z" fill="#CCCCCC"/>
<path d="M141.105 212.694H235.875V269.68H141.105V212.694Z" fill="#F2F2F2"/>
<path d="M154.197 230.656H174.148V247.999H154.197V230.656Z" fill="#3F3D56"/>
<path d="M182.253 230.037H199.711V269.68H182.253V230.037Z" fill="#CCCCCC"/>
<path d="M219.667 236.231V230.037H227.148V236.231H219.667Z" fill="#3F3D56"/>
<path d="M220.291 241.186H227.148V247.38H219.667V241.186H220.291Z" fill="#3F3D56"/>
<path d="M207.198 230.037H214.68V236.232H207.198V230.037Z" fill="#3F3D56"/>
<path d="M207.198 241.187H214.68V247.381H207.198V241.187Z" fill="#3F3D56"/>
<path d="M114.299 236.851V230.652H121.781V236.847H114.299V236.851Z" fill="#3F3D56"/>
<path d="M114.923 241.806H121.781V247.999H114.299V241.806H114.923Z" fill="#3F3D56"/>
<path d="M101.823 230.656H109.305V236.851H101.823V230.656Z" fill="#3F3D56"/>
<path d="M101.823 241.806H109.305V248H101.823V241.806Z" fill="#3F3D56"/>
<path d="M400.874 114.83L407.109 109.874L372.194 78.9033H283.661V106.158L341.021 144.561L400.874 114.83Z" fill="#3F3D56"/>
<path d="M267.515 96.2756V79.5213H279.269V83.6252L283.657 78.9033L312.337 109.873L323.558 117.306L340.961 243.608L314.716 269.68H253.727V111.111L267.515 96.2756Z" fill="#CCCCCC"/>
<path d="M312.34 109.873H407.109V269.68H312.34V109.873Z" fill="#F2F2F2"/>
<path d="M352.871 230.656H370.328V269.679H352.871V230.656Z" fill="#CCCCCC"/>
<path d="M389.027 241.806V235.612H396.508V241.806H389.027Z" fill="#3F3D56"/>
<path d="M389.649 246.762H396.508V252.956H389.027V246.762H389.649Z" fill="#3F3D56"/>
<path d="M376.557 235.612H384.039V241.807H376.557V235.612Z" fill="#3F3D56"/>
<path d="M376.557 246.762H384.039V252.956H376.557V246.762Z" fill="#3F3D56"/>
<path d="M337.91 241.806V235.612H345.391V241.806H337.91Z" fill="#3F3D56"/>
<path d="M338.524 246.762H345.383V252.956H337.902V246.762H338.524Z" fill="#3F3D56"/>
<path d="M325.432 235.612H332.914V241.807H325.432V235.612Z" fill="#3F3D56"/>
<path d="M325.432 246.762H332.914V252.956H325.432V246.762Z" fill="#3F3D56"/>
<path d="M285.535 117.925V111.731H293.016V117.925H285.535Z" fill="#3F3D56"/>
<path d="M286.157 122.881H293.016V129.074H285.535V122.881H286.157Z" fill="#3F3D56"/>
<path d="M273.065 111.73H280.547V117.925H273.065V111.73Z" fill="#3F3D56"/>
<path d="M273.065 122.879H280.547V129.073H273.065V122.879Z" fill="#3F3D56"/>
<path d="M285.535 152.611V146.417H293.016V152.611H285.535Z" fill="#3F3D56"/>
<path d="M286.157 157.566H293.016V163.76H285.535V157.566H286.157Z" fill="#3F3D56"/>
<path d="M273.065 146.417H280.547V152.612H273.065V146.417Z" fill="#3F3D56"/>
<path d="M273.065 157.566H280.547V163.761H273.065V157.566Z" fill="#3F3D56"/>
<path d="M285.535 187.299V181.104H293.016V187.299H285.535Z" fill="#3F3D56"/>
<path d="M286.157 192.253H293.016V198.446H285.535V192.253H286.157Z" fill="#3F3D56"/>
<path d="M273.065 181.104H280.547V187.299H273.065V181.104Z" fill="#3F3D56"/>
<path d="M273.065 192.253H280.547V198.447H273.065V192.253Z" fill="#3F3D56"/>
<path d="M285.535 221.986V215.791H293.016V221.986H285.535Z" fill="#3F3D56"/>
<path d="M286.157 226.94H293.016V233.134H285.535V226.94H286.157Z" fill="#3F3D56"/>
<path d="M273.065 215.791H280.547V221.986H273.065V215.791Z" fill="#3F3D56"/>
<path d="M273.065 226.94H280.547V233.135H273.065V226.94Z" fill="#3F3D56"/>
<path d="M324.185 117.924H396.508V132.789H324.185V117.924Z" fill="#3F3D56"/>
<path d="M324.185 147.656H396.508V162.522H324.185V147.656Z" fill="#3F3D56"/>
<path d="M324.185 177.388H396.508V192.253H324.185V177.388Z" fill="#3F3D56"/>
<path d="M324.185 207.119H396.508V221.985H324.185V207.119Z" fill="#3F3D56"/>
<path d="M424.856 198.096H426.664V269.061H424.856V198.096Z" fill="#3F3D56"/>
<path d="M408.158 207.139C408.046 231.954 425.617 252.151 425.617 252.151C425.617 252.151 443.377 232.116 443.492 207.301C443.606 182.485 426.033 162.289 426.033 162.289C426.033 162.289 408.274 182.324 408.158 207.139Z" fill="#9974FF"/>
<path d="M244.012 198.096H245.82V269.061H244.012V198.096Z" fill="#3F3D56"/>
<path d="M227.322 207.139C227.21 231.954 244.781 252.151 244.781 252.151C244.781 252.151 262.541 232.116 262.656 207.301C262.77 182.485 245.197 162.289 245.197 162.289C245.197 162.289 227.438 182.324 227.322 207.139Z" fill="#9974FF"/>
<path d="M79.874 225.495C80.9838 224.368 81.8178 223 82.3109 221.498C82.8039 219.995 82.9426 218.399 82.7161 216.834C82.4516 215.247 81.8375 213.738 80.9182 212.418C79.9989 211.098 78.7974 209.998 77.4009 209.199C78.1359 208.176 78.5325 206.949 78.5348 205.69C78.5165 204.101 77.9092 202.575 76.8305 201.409C75.7518 200.242 74.2785 199.517 72.6959 199.374C71.1009 199.115 69.4655 199.427 68.0783 200.256C66.6911 201.085 65.6412 202.377 65.1139 203.904C64.1528 202.474 62.8506 201.305 61.3248 200.504C59.799 199.703 58.0978 199.294 56.3745 199.315C50.7385 199.315 46.168 203.57 46.168 208.815C46.167 209.938 46.3786 211.051 46.7917 212.095C46.5864 212.095 46.3766 212.065 46.168 212.065C44.0717 211.993 42.0326 212.756 40.4977 214.186C38.9629 215.616 38.0576 217.596 37.9805 219.692C37.973 219.949 37.9873 220.206 38.0231 220.461C36.2431 221.127 34.7045 222.312 33.607 223.864C32.5095 225.415 31.904 227.261 31.869 229.161C31.869 234.391 36.4248 238.631 42.0406 238.631C42.6305 238.63 43.2194 238.582 43.8015 238.486C43.7712 238.788 43.7521 239.12 43.7521 239.443C43.7521 245.312 48.8609 250.068 55.1676 250.068C57.4731 250.077 59.7323 249.42 61.6729 248.175C63.248 249.411 65.1947 250.078 67.1967 250.068C69.379 250.142 71.5016 249.347 73.0993 247.859C74.6971 246.371 75.6398 244.31 75.7207 242.128C75.7254 241.94 75.7153 241.753 75.6905 241.567H75.7207C78.058 241.648 80.3319 240.798 82.0436 239.205C83.7553 237.611 84.765 235.404 84.8516 233.067C84.8267 231.462 84.3454 229.898 83.4639 228.557C82.5824 227.216 81.3372 226.154 79.874 225.495Z" fill="url(#paint0_linear_1_214)"/>
<path d="M78.5596 225.446C79.6023 224.389 80.3861 223.105 80.8496 221.694C81.3131 220.283 81.4437 218.784 81.2312 217.315C80.983 215.824 80.4063 214.408 79.5428 213.168C78.6793 211.928 77.5508 210.896 76.239 210.147C76.9293 209.188 77.3016 208.036 77.3035 206.855C77.2851 205.364 76.7143 203.932 75.7016 202.838C74.6889 201.743 73.3063 201.063 71.8211 200.929C70.3245 200.686 68.7899 200.978 67.4879 201.755C66.1858 202.532 65.1998 203.744 64.7035 205.177C63.8016 203.834 62.5796 202.737 61.1476 201.985C59.7156 201.232 58.1188 200.848 56.5014 200.868C51.1963 200.868 46.923 204.861 46.923 209.784C46.9226 210.838 47.1217 211.882 47.5096 212.862C47.3144 212.862 47.1215 212.835 46.923 212.835C44.9549 212.767 43.0403 213.483 41.5989 214.824C40.1576 216.166 39.3073 218.025 39.2345 219.993C39.2276 220.234 39.2407 220.475 39.2738 220.714C37.6032 221.339 36.1591 222.452 35.1291 223.908C34.099 225.364 33.5306 227.096 33.4976 228.879C33.4976 233.788 37.7708 237.766 43.0468 237.766C43.6021 237.765 44.1565 237.72 44.7045 237.63C44.6742 237.932 44.6585 238.233 44.6585 238.535C44.6585 244.042 49.4556 248.508 55.3742 248.508C57.5368 248.516 59.6555 247.898 61.4756 246.73C62.9518 247.889 64.7761 248.516 66.6528 248.508C68.7017 248.58 70.6953 247.835 72.1959 246.438C73.6964 245.041 74.5813 243.106 74.6565 241.057C74.6614 240.881 74.6513 240.704 74.6262 240.529H74.6565C76.8502 240.605 78.9844 239.807 80.5909 238.311C82.1975 236.816 83.1453 234.744 83.2266 232.55C83.2031 231.045 82.7518 229.578 81.9253 228.32C81.0989 227.062 79.9316 226.065 78.5596 225.446Z" fill="#9974FF"/>
<path d="M59.1663 214.063H61.6562V270.405H59.1663V214.063Z" fill="url(#paint1_linear_1_214)"/>
<path d="M59.8722 214.854H61.125V270.406H59.8722V214.854Z" fill="#795548"/>
<path d="M70.9453 221.928L70.0258 221.153L59.7565 231.252L60.6759 232.027L70.9453 221.928Z" fill="#795548"/>
<path d="M60.5938 239.832L49.9394 232.635L49.1923 233.551L59.8466 240.748L60.5938 239.832Z" fill="#795548"/>
<path d="M64.2541 231.759C63.436 230.985 62.7824 230.053 62.3325 229.02C61.8825 227.988 61.6453 226.875 61.6352 225.748C61.6725 224.16 62.1391 222.611 62.9854 221.266C63.8317 219.922 65.0263 218.831 66.4423 218.11C65.7989 217.267 65.4495 216.235 65.4474 215.174C65.4474 212.229 68.1628 209.839 71.5119 209.839C72.7603 209.795 73.9914 210.141 75.0342 210.828C76.077 211.516 76.8796 212.512 77.3307 213.677C78.2171 212.462 79.3833 211.479 80.7305 210.811C82.0777 210.143 83.5662 209.809 85.0697 209.839C90.063 209.839 94.1074 213.396 94.1074 217.787C94.107 218.73 93.9186 219.662 93.5533 220.531C93.7361 220.531 93.9212 220.506 94.1074 220.506C98.1126 220.506 101.362 223.361 101.362 226.886C101.362 227.1 101.35 227.315 101.326 227.528C102.868 228.041 104.216 229.014 105.189 230.314C106.163 231.615 106.716 233.183 106.773 234.806C106.773 239.181 102.736 242.728 97.7649 242.728C97.2432 242.727 96.7225 242.687 96.207 242.607C96.2346 242.873 96.2488 243.14 96.2496 243.407C96.2496 248.316 91.724 252.296 86.1407 252.296C84.1129 252.307 82.1215 251.758 80.3848 250.712C78.9668 251.763 77.2461 252.325 75.4812 252.314C71.31 252.314 67.9284 249.342 67.9284 245.676C67.9244 245.518 67.9334 245.361 67.9553 245.205H67.9284C63.4623 245.205 59.8417 242.022 59.8417 238.093C59.8838 236.723 60.3235 235.394 61.1071 234.27C61.8907 233.145 62.9834 232.273 64.2541 231.759Z" fill="url(#paint2_linear_1_214)"/>
<path d="M65.0668 231.731C64.2813 230.99 63.6532 230.099 63.2202 229.11C62.7871 228.121 62.558 227.055 62.5466 225.976C62.5841 224.458 63.0312 222.978 63.8407 221.693C64.6502 220.408 65.7919 219.366 67.145 218.677C66.5276 217.872 66.1901 216.887 66.1838 215.873C66.1838 213.054 68.7837 210.767 71.9892 210.767C73.1844 210.725 74.363 211.057 75.3612 211.715C76.3594 212.374 77.1276 213.327 77.559 214.443C78.4068 213.28 79.5223 212.34 80.8108 211.7C82.0994 211.06 83.5231 210.74 84.9615 210.767C89.7394 210.767 93.6123 214.175 93.6123 218.375C93.6118 219.277 93.4314 220.169 93.0817 221.001C93.2578 221.001 93.4328 220.976 93.6123 220.976C97.4481 220.976 100.555 223.71 100.555 227.081C100.554 227.282 100.542 227.484 100.519 227.684C101.995 228.175 103.285 229.105 104.217 230.35C105.15 231.595 105.679 233.095 105.734 234.649C105.734 238.837 101.875 242.232 97.1139 242.232C96.6145 242.233 96.1158 242.195 95.6222 242.12C95.6486 242.375 95.6618 242.63 95.6614 242.886C95.6614 247.584 91.3276 251.396 85.9866 251.396C84.0462 251.408 82.1398 250.886 80.4763 249.887C79.1201 250.881 77.4793 251.41 75.7981 251.396C71.8198 251.396 68.5706 248.55 68.5706 245.041C68.5663 244.891 68.5753 244.741 68.5975 244.592H68.5706C64.2973 244.592 60.8317 241.545 60.8317 237.784C60.8755 236.473 61.2991 235.204 62.0509 234.129C62.8028 233.054 63.8505 232.221 65.0668 231.731Z" fill="#4F3499"/>
<path d="M80.0039 222.834H82.8359V270.123H80.0039V222.834Z" fill="url(#paint3_linear_1_214)"/>
<path d="M80.6932 222.834H82.2578V270.123H80.6932V222.834Z" fill="#795548"/>
<path d="M82.1797 236.498L72.9031 227.887L71.7854 228.883L81.0619 237.495L82.1797 236.498Z" fill="#795548"/>
<path d="M91.6953 238.843L90.7965 237.677L81.1779 243.82L82.0767 244.986L91.6953 238.843Z" fill="#795548"/>
<defs>
<linearGradient id="paint0_linear_1_214" x1="209.943" y1="199.285" x2="209.943" y2="199.285" gradientUnits="userSpaceOnUse">
<stop stop-color="#808080" stop-opacity="0.251"/>
<stop offset="0.54" stop-color="#808080" stop-opacity="0.122"/>
<stop offset="1" stop-color="#808080" stop-opacity="0.102"/>
</linearGradient>
<linearGradient id="paint1_linear_1_214" x1="155.835" y1="288.491" x2="155.835" y2="232.149" gradientUnits="userSpaceOnUse">
<stop stop-color="#808080" stop-opacity="0.251"/>
<stop offset="0.54" stop-color="#808080" stop-opacity="0.122"/>
<stop offset="1" stop-color="#808080" stop-opacity="0.102"/>
</linearGradient>
<linearGradient id="paint2_linear_1_214" x1="185.009" y1="209.835" x2="185.009" y2="209.835" gradientUnits="userSpaceOnUse">
<stop stop-color="#808080" stop-opacity="0.251"/>
<stop offset="0.54" stop-color="#808080" stop-opacity="0.122"/>
<stop offset="1" stop-color="#808080" stop-opacity="0.102"/>
</linearGradient>
<linearGradient id="paint3_linear_1_214" x1="134.834" y1="288.235" x2="134.834" y2="240.946" gradientUnits="userSpaceOnUse">
<stop stop-color="#808080" stop-opacity="0.251"/>
<stop offset="0.54" stop-color="#808080" stop-opacity="0.122"/>
<stop offset="1" stop-color="#808080" stop-opacity="0.102"/>
</linearGradient>
</defs>
</svg>
