<svg width="510" height="315" viewBox="0 0 510 315" fill="none" xmlns="http://www.w3.org/2000/svg">
<path d="M327.887 97.1519C354.473 97.1519 376.025 75.4037 376.025 48.5759C376.025 21.7482 354.473 0 327.887 0C301.302 0 279.75 21.7482 279.75 48.5759C279.75 75.4037 301.302 97.1519 327.887 97.1519Z" fill="#FAEC57"/>
<path d="M309.6 242.784H307.828V313.436H309.6V242.784Z" fill="#3F3D56"/>
<path d="M325.96 251.787C326.072 276.493 308.849 296.6 308.849 296.6C308.849 296.6 291.441 276.653 291.329 251.948C291.217 227.243 308.44 207.135 308.44 207.135C308.44 207.135 325.848 227.082 325.96 251.787Z" fill="#4F3499"/>
<path opacity="0.4" d="M289.498 44.1232C295.036 44.0728 300.465 45.6689 305.094 48.7091C309.723 51.7492 313.345 56.0963 315.499 61.1985C317.654 66.3007 318.244 71.9279 317.194 77.3659C316.144 82.804 313.503 87.8075 309.605 91.7416C305.706 95.6756 300.727 98.3627 295.299 99.4617C289.87 100.561 284.238 100.022 279.116 97.9144C273.995 95.8066 269.615 92.2247 266.533 87.6232C263.451 83.0217 261.805 77.6082 261.805 72.0698C261.788 68.4163 262.49 64.7952 263.873 61.4132C265.255 58.0313 267.291 54.9549 269.862 52.3597C272.434 49.7645 275.492 47.7014 278.861 46.2881C282.23 44.8749 285.845 44.1392 289.498 44.1232Z" fill="#FAEC57"/>
<path d="M123.164 305.576C124.666 311.176 129.807 314.644 129.807 314.644C129.807 314.644 132.515 309.036 131.014 303.429C129.513 297.821 124.371 294.359 124.371 294.359C124.371 294.359 121.663 299.981 123.164 305.576Z" fill="#3F3D56"/>
<path d="M125.369 304.371C129.488 308.418 129.992 314.638 129.992 314.638C129.992 314.638 123.816 314.302 119.697 310.252C115.577 306.202 115.07 299.989 115.07 299.989C115.07 299.989 121.249 300.334 125.369 304.371Z" fill="#9974FF"/>
<path d="M136.353 159.882L130.242 154.947L164.464 124.113H251.239V151.248L195.017 189.483L136.353 159.882Z" fill="#3F3D56"/>
<path d="M267.066 141.41V124.73H255.545V128.815L251.245 124.113L223.133 154.947L212.134 162.349L195.078 288.095L220.799 314.051H280.573V156.182L267.066 141.41Z" fill="#CCCCCC"/>
<path d="M223.131 154.949H130.242V314.052H223.131V154.949Z" fill="#F2F2F2"/>
<path d="M183.408 275.201H166.297V314.052H183.408V275.201Z" fill="#CCCCCC"/>
<path d="M147.966 286.302V280.133H140.633V286.302H147.966Z" fill="#3F3D56"/>
<path d="M147.355 291.234H140.633V297.403H147.966V291.234H147.355Z" fill="#3F3D56"/>
<path d="M160.184 280.135H152.852V286.301H160.184V280.135Z" fill="#3F3D56"/>
<path d="M160.184 291.234H152.852V297.401H160.184V291.234Z" fill="#3F3D56"/>
<path d="M198.075 286.303V280.134H190.742V286.303H198.075Z" fill="#3F3D56"/>
<path d="M197.465 291.234H190.742V297.403H198.075V291.234H197.465Z" fill="#3F3D56"/>
<path d="M210.294 280.135H202.961V286.301H210.294V280.135Z" fill="#3F3D56"/>
<path d="M210.294 291.234H202.961V297.401H210.294V291.234Z" fill="#3F3D56"/>
<path d="M249.411 162.967V156.798H242.078V162.967H249.411Z" fill="#3F3D56"/>
<path d="M248.8 167.9H242.078V174.069H249.411V167.9H248.8Z" fill="#3F3D56"/>
<path d="M261.63 156.799H254.297V162.965H261.63V156.799Z" fill="#3F3D56"/>
<path d="M261.63 167.899H254.297V174.066H261.63V167.899Z" fill="#3F3D56"/>
<path d="M249.411 197.501V191.332H242.078V197.501H249.411Z" fill="#3F3D56"/>
<path d="M248.8 202.435H242.078V208.603H249.411V202.435H248.8Z" fill="#3F3D56"/>
<path d="M261.63 191.334H254.297V197.5H261.63V191.334Z" fill="#3F3D56"/>
<path d="M261.63 202.433H254.297V208.599H261.63V202.433Z" fill="#3F3D56"/>
<path d="M249.411 232.035V225.866H242.078V232.035H249.411Z" fill="#3F3D56"/>
<path d="M248.8 236.968H242.078V243.137H249.411V236.968H248.8Z" fill="#3F3D56"/>
<path d="M261.63 225.867H254.297V232.034H261.63V225.867Z" fill="#3F3D56"/>
<path d="M261.63 236.968H254.297V243.134H261.63V236.968Z" fill="#3F3D56"/>
<path d="M249.411 266.569V260.4H242.078V266.569H249.411Z" fill="#3F3D56"/>
<path d="M248.8 271.502H242.078V277.671H249.411V271.502H248.8Z" fill="#3F3D56"/>
<path d="M261.63 260.4H254.297V266.567H261.63V260.4Z" fill="#3F3D56"/>
<path d="M261.63 271.502H254.297V277.668H261.63V271.502Z" fill="#3F3D56"/>
<path d="M211.522 162.967H140.633V177.767H211.522V162.967Z" fill="#3F3D56"/>
<path d="M211.522 192.566H140.633V207.367H211.522V192.566Z" fill="#3F3D56"/>
<path d="M211.522 222.168H140.633V236.968H211.522V222.168Z" fill="#3F3D56"/>
<path d="M211.522 251.769H140.633V266.569H211.522V251.769Z" fill="#3F3D56"/>
<path d="M332.212 159.882L326.102 154.947L360.323 124.113H447.101V151.248L390.879 189.483L332.212 159.882Z" fill="#3F3D56"/>
<path d="M462.925 141.41V124.73H451.405V128.815L447.104 124.113L418.993 154.947L407.993 162.349L390.938 288.095L416.659 314.051H476.433V156.182L462.925 141.41Z" fill="#CCCCCC"/>
<path d="M418.99 154.949H326.102V314.052H418.99V154.949Z" fill="#F2F2F2"/>
<path d="M379.275 275.201H362.164V314.052H379.275V275.201Z" fill="#CCCCCC"/>
<path d="M343.825 286.302V280.133H336.492V286.302H343.825Z" fill="#3F3D56"/>
<path d="M343.214 291.234H336.492V297.403H343.825V291.234H343.214Z" fill="#3F3D56"/>
<path d="M356.052 280.135H348.719V286.301H356.052V280.135Z" fill="#3F3D56"/>
<path d="M356.052 291.234H348.719V297.401H356.052V291.234Z" fill="#3F3D56"/>
<path d="M393.935 286.302V280.133H386.602V286.302H393.935Z" fill="#3F3D56"/>
<path d="M393.324 291.234H386.602V297.403H393.935V291.234H393.324Z" fill="#3F3D56"/>
<path d="M406.161 280.135H398.828V286.301H406.161V280.135Z" fill="#3F3D56"/>
<path d="M406.161 291.234H398.828V297.401H406.161V291.234Z" fill="#3F3D56"/>
<path d="M445.27 162.967V156.798H437.938V162.967H445.27Z" fill="#3F3D56"/>
<path d="M444.667 167.9H437.945V174.069H445.278V167.9H444.667Z" fill="#3F3D56"/>
<path d="M457.497 156.799H450.164V162.965H457.497V156.799Z" fill="#3F3D56"/>
<path d="M457.497 167.899H450.164V174.066H457.497V167.899Z" fill="#3F3D56"/>
<path d="M445.27 197.501V191.332H437.938V197.501H445.27Z" fill="#3F3D56"/>
<path d="M444.667 202.435H437.945V208.603H445.278V202.435H444.667Z" fill="#3F3D56"/>
<path d="M457.497 191.334H450.164V197.5H457.497V191.334Z" fill="#3F3D56"/>
<path d="M457.497 202.433H450.164V208.599H457.497V202.433Z" fill="#3F3D56"/>
<path d="M445.27 232.035V225.866H437.938V232.035H445.27Z" fill="#3F3D56"/>
<path d="M444.667 236.968H437.945V243.137H445.278V236.968H444.667Z" fill="#3F3D56"/>
<path d="M457.497 225.867H450.164V232.034H457.497V225.867Z" fill="#3F3D56"/>
<path d="M457.497 236.968H450.164V243.134H457.497V236.968Z" fill="#3F3D56"/>
<path d="M445.27 266.569V260.4H437.938V266.569H445.27Z" fill="#3F3D56"/>
<path d="M444.667 271.502H437.945V277.671H445.278V271.502H444.667Z" fill="#3F3D56"/>
<path d="M457.497 260.4H450.164V266.567H457.497V260.4Z" fill="#3F3D56"/>
<path d="M457.497 271.502H450.164V277.668H457.497V271.502Z" fill="#3F3D56"/>
<path d="M407.381 162.967H336.492V177.767H407.381V162.967Z" fill="#3F3D56"/>
<path d="M407.381 192.566H336.492V207.367H407.381V192.566Z" fill="#3F3D56"/>
<path d="M407.381 222.168H336.492V236.968H407.381V222.168Z" fill="#3F3D56"/>
<path d="M407.381 251.769H336.492V266.569H407.381V251.769Z" fill="#3F3D56"/>
<path d="M286.561 242.784H284.789V313.436H286.561V242.784Z" fill="#3F3D56"/>
<path d="M302.921 251.787C303.033 276.493 285.81 296.6 285.81 296.6C285.81 296.6 268.402 276.653 268.29 251.948C268.177 227.243 285.401 207.135 285.401 207.135C285.401 207.135 302.808 227.082 302.921 251.787Z" fill="#9974FF"/>
<path d="M97.1104 269.866C96.0006 268.739 95.1666 267.371 94.6735 265.869C94.1804 264.366 94.0418 262.77 94.2683 261.205C94.5328 259.618 95.1469 258.11 96.0662 256.789C96.9855 255.469 98.1869 254.369 99.5835 253.57C98.8485 252.548 98.4519 251.32 98.4495 250.061C98.4678 248.472 99.0752 246.946 100.154 245.78C101.233 244.613 102.706 243.888 104.289 243.745C105.884 243.486 107.519 243.798 108.906 244.627C110.293 245.456 111.343 246.748 111.87 248.275C112.832 246.845 114.134 245.676 115.66 244.875C117.185 244.074 118.887 243.665 120.61 243.686C126.246 243.686 130.816 247.941 130.816 253.186C130.817 254.309 130.606 255.422 130.193 256.466C130.398 256.466 130.608 256.436 130.816 256.436C132.913 256.364 134.952 257.127 136.487 258.557C138.021 259.987 138.927 261.967 139.004 264.063C139.011 264.32 138.997 264.577 138.961 264.832C140.741 265.498 142.28 266.684 143.377 268.235C144.475 269.787 145.08 271.632 145.115 273.532C145.115 278.762 140.56 283.002 134.944 283.002C134.354 283.001 133.765 282.953 133.183 282.857C133.213 283.159 133.232 283.491 133.232 283.814C133.232 289.683 128.123 294.439 121.817 294.439C119.511 294.448 117.252 293.791 115.311 292.547C113.736 293.782 111.79 294.449 109.788 294.439C107.605 294.513 105.483 293.718 103.885 292.23C102.287 290.742 101.345 288.681 101.264 286.499C101.259 286.312 101.269 286.124 101.294 285.938H101.264C98.9264 286.019 96.6525 285.169 94.9408 283.576C93.2291 281.982 92.2193 279.775 92.1328 277.438C92.1577 275.833 92.639 274.269 93.5205 272.928C94.402 271.587 95.6472 270.525 97.1104 269.866Z" fill="url(#paint0_linear_1_303)"/>
<path d="M98.4247 269.817C97.3821 268.76 96.5982 267.476 96.1348 266.065C95.6713 264.654 95.5407 263.155 95.7532 261.686C96.0014 260.195 96.5781 258.779 97.4416 257.539C98.305 256.299 99.4336 255.267 100.745 254.518C100.055 253.559 99.6827 252.407 99.6809 251.226C99.6993 249.735 100.27 248.304 101.283 247.209C102.295 246.114 103.678 245.434 105.163 245.3C106.66 245.057 108.194 245.349 109.497 246.126C110.799 246.903 111.785 248.115 112.281 249.548C113.183 248.205 114.405 247.108 115.837 246.356C117.269 245.603 118.866 245.22 120.483 245.239C125.788 245.239 130.061 249.232 130.061 254.155C130.062 255.209 129.863 256.253 129.475 257.233C129.67 257.233 129.863 257.206 130.061 257.206C132.029 257.138 133.944 257.854 135.385 259.196C136.827 260.537 137.677 262.396 137.75 264.364C137.757 264.605 137.744 264.846 137.711 265.085C139.381 265.71 140.825 266.823 141.855 268.279C142.885 269.735 143.454 271.467 143.487 273.25C143.487 278.16 139.214 282.137 133.938 282.137C133.382 282.136 132.828 282.091 132.28 282.001C132.31 282.303 132.326 282.604 132.326 282.906C132.326 288.413 127.529 292.879 121.61 292.879C119.448 292.887 117.329 292.27 115.509 291.102C114.033 292.261 112.208 292.887 110.332 292.879C108.283 292.951 106.289 292.206 104.789 290.809C103.288 289.413 102.403 287.477 102.328 285.429C102.323 285.252 102.333 285.075 102.358 284.9H102.328C100.134 284.976 98 284.178 96.3934 282.682C94.7869 281.187 93.8391 279.115 93.7578 276.921C93.7813 275.416 94.2326 273.949 95.059 272.691C95.8854 271.433 97.0528 270.436 98.4247 269.817Z" fill="#9974FF"/>
<path d="M117.818 258.435H115.328V314.776H117.818V258.435Z" fill="url(#paint1_linear_1_303)"/>
<path d="M117.112 259.225H115.859V314.776H117.112V259.225Z" fill="#795548"/>
<path d="M106.031 266.299L106.951 265.524L117.22 275.623L116.301 276.398L106.031 266.299Z" fill="#795548"/>
<path d="M116.391 284.203L127.045 277.006L127.792 277.923L117.138 285.119L116.391 284.203Z" fill="#795548"/>
<path d="M112.73 276.13C113.548 275.356 114.202 274.424 114.652 273.392C115.102 272.359 115.339 271.246 115.349 270.119C115.312 268.531 114.845 266.982 113.999 265.638C113.153 264.293 111.958 263.202 110.542 262.481C111.185 261.638 111.535 260.606 111.537 259.545C111.537 256.6 108.822 254.21 105.472 254.21C104.224 254.166 102.993 254.512 101.95 255.2C100.907 255.887 100.105 256.883 99.6537 258.048C98.7673 256.833 97.6011 255.85 96.2539 255.182C94.9067 254.514 93.4182 254.18 91.9147 254.21C86.9214 254.21 82.877 257.767 82.877 262.159C82.8774 263.101 83.0657 264.033 83.4311 264.902C83.2483 264.902 83.0632 264.877 82.877 264.877C78.8718 264.877 75.6225 267.732 75.6225 271.257C75.6223 271.472 75.6344 271.686 75.6585 271.899C74.1168 272.413 72.7687 273.385 71.7951 274.685C70.8214 275.986 70.2687 277.554 70.2109 279.177C70.2109 283.552 74.2486 287.099 79.2195 287.099C79.7411 287.099 80.2619 287.058 80.7774 286.978C80.7498 287.244 80.7356 287.511 80.7348 287.778C80.7348 292.687 85.2604 296.667 90.8437 296.667C92.8714 296.678 94.8628 296.129 96.5996 295.083C98.0175 296.134 99.7383 296.696 101.503 296.685C105.674 296.685 109.056 293.713 109.056 290.047C109.06 289.889 109.051 289.732 109.029 289.576H109.056C113.522 289.576 117.143 286.393 117.143 282.464C117.101 281.094 116.661 279.765 115.877 278.641C115.094 277.516 114.001 276.644 112.73 276.13Z" fill="url(#paint2_linear_1_303)"/>
<path d="M111.918 276.102C112.703 275.361 113.331 274.47 113.764 273.481C114.197 272.492 114.426 271.426 114.438 270.347C114.4 268.829 113.953 267.349 113.144 266.064C112.334 264.779 111.193 263.737 109.839 263.048C110.457 262.243 110.794 261.258 110.801 260.244C110.801 257.425 108.201 255.138 104.995 255.138C103.8 255.096 102.621 255.428 101.623 256.086C100.625 256.745 99.8568 257.698 99.4254 258.814C98.5775 257.652 97.4621 256.711 96.1735 256.071C94.885 255.431 93.4613 255.111 92.0229 255.138C87.2449 255.138 83.3721 258.546 83.3721 262.746C83.3726 263.648 83.553 264.54 83.9026 265.372C83.7265 265.372 83.5515 265.347 83.3721 265.347C79.5363 265.347 76.4295 268.081 76.4295 271.452C76.4302 271.653 76.4422 271.855 76.4653 272.055C74.9896 272.546 73.6991 273.476 72.7669 274.721C71.8348 275.966 71.3055 277.466 71.25 279.02C71.25 283.208 75.1094 286.603 79.8705 286.603C80.3699 286.604 80.8686 286.566 81.3622 286.491C81.3358 286.746 81.3226 287.001 81.3229 287.257C81.3229 291.956 85.6568 295.767 90.9978 295.767C92.9382 295.779 94.8446 295.257 96.5081 294.258C97.8643 295.252 99.5051 295.781 101.186 295.767C105.165 295.767 108.414 292.921 108.414 289.412C108.418 289.262 108.409 289.112 108.387 288.963H108.414C112.687 288.963 116.153 285.916 116.153 282.155C116.109 280.844 115.685 279.575 114.933 278.5C114.182 277.425 113.134 276.592 111.918 276.102Z" fill="#4F3499"/>
<path d="M96.9804 267.205H94.1484V314.495H96.9804V267.205Z" fill="url(#paint3_linear_1_303)"/>
<path d="M96.2912 267.205H94.7266V314.495H96.2912V267.205Z" fill="#795548"/>
<path d="M94.8047 280.868L104.081 272.257L105.199 273.254L95.9224 281.865L94.8047 280.868Z" fill="#795548"/>
<path d="M85.2891 283.214L86.1879 282.048L95.8065 288.191L94.9076 289.357L85.2891 283.214Z" fill="#795548"/>
<defs>
<linearGradient id="paint0_linear_1_303" x1="-32.9591" y1="243.656" x2="-32.9591" y2="243.656" gradientUnits="userSpaceOnUse">
<stop stop-color="#808080" stop-opacity="0.251"/>
<stop offset="0.54" stop-color="#808080" stop-opacity="0.122"/>
<stop offset="1" stop-color="#808080" stop-opacity="0.102"/>
</linearGradient>
<linearGradient id="paint1_linear_1_303" x1="21.1492" y1="332.862" x2="21.1492" y2="276.52" gradientUnits="userSpaceOnUse">
<stop stop-color="#808080" stop-opacity="0.251"/>
<stop offset="0.54" stop-color="#808080" stop-opacity="0.122"/>
<stop offset="1" stop-color="#808080" stop-opacity="0.102"/>
</linearGradient>
<linearGradient id="paint2_linear_1_303" x1="-8.02419" y1="254.206" x2="-8.02419" y2="254.206" gradientUnits="userSpaceOnUse">
<stop stop-color="#808080" stop-opacity="0.251"/>
<stop offset="0.54" stop-color="#808080" stop-opacity="0.122"/>
<stop offset="1" stop-color="#808080" stop-opacity="0.102"/>
</linearGradient>
<linearGradient id="paint3_linear_1_303" x1="42.1499" y1="332.606" x2="42.1499" y2="285.317" gradientUnits="userSpaceOnUse">
<stop stop-color="#808080" stop-opacity="0.251"/>
<stop offset="0.54" stop-color="#808080" stop-opacity="0.122"/>
<stop offset="1" stop-color="#808080" stop-opacity="0.102"/>
</linearGradient>
</defs>
</svg>
