<svg width="49" height="58" viewBox="0 0 49 58" fill="none" xmlns="http://www.w3.org/2000/svg">
<path fill-rule="evenodd" clip-rule="evenodd" d="M17.5016 54.6606C18.2769 55.6857 19.2765 56.5197 20.4241 57.0986C21.5718 57.6775 22.8364 57.9858 24.1217 58C25.4048 57.9913 26.6688 57.6853 27.8137 57.1058C28.9586 56.5264 29.9533 55.6894 30.7202 54.6606C31.1787 54.0654 31.5109 53.383 31.6964 52.6549C31.8819 51.9268 31.9168 51.1684 31.799 50.4264C31.3488 47.4252 30.5148 41.9813 29.7711 36.899C28.759 30.2455 32.7447 23.8813 38.8703 22.3583C43.5092 21.2196 47.0447 17.2043 47.8564 12.1975C47.9455 11.6168 48.035 11.0841 48.1036 10.6243C48.1388 10.416 48.1247 10.2023 48.0621 10.0006C47.9995 9.79894 47.8903 9.61509 47.7433 9.46343C47.6061 9.32223 47.4345 9.21874 47.2455 9.16353C47.0565 9.10831 46.8568 9.10344 46.6651 9.14856C45.3135 9.51243 43.4214 9.99539 41.8683 10.4069C40.9642 10.6476 40.1279 11.0938 39.4247 11.7108C38.7214 12.3278 38.1699 13.0986 37.8137 13.9637C37.6436 14.4109 37.3461 14.7983 36.9578 15.0779C36.5695 15.3576 36.1077 15.5174 35.6296 15.5369C35.1525 15.5468 34.6829 15.4199 34.2758 15.1711C33.8687 14.9223 33.5412 14.5617 33.3323 14.1328C33.2426 13.9386 33.1305 13.7448 33.0612 13.5767C32.7962 13.0674 32.65 12.5043 32.6338 11.9303C32.5668 10.6974 32.4763 8.37441 32.4071 6.80142C32.3663 5.67689 32.5581 4.55615 32.9703 3.50911C33.0411 3.35204 33.101 3.19072 33.1505 3.02571C33.2786 2.71394 33.3126 2.37155 33.2486 2.04062C33.1845 1.70969 33.0253 1.40453 32.7901 1.16307C32.7901 1.13753 32.768 1.11544 32.7447 1.0899C32.4141 0.747136 32.0179 0.473841 31.58 0.286639C31.1421 0.0994361 30.6714 0.00220644 30.1952 3.69562e-05C29.719 -0.00213253 29.2472 0.0912376 28.8077 0.274443C28.3681 0.457648 27.9695 0.72688 27.6357 1.06662C27.3289 1.37975 27.1241 1.77853 27.0476 2.21025C26.9711 2.64197 27.0266 3.08632 27.2072 3.48582C27.2208 3.49863 27.2291 3.516 27.2305 3.53461C27.6579 4.49441 27.8805 5.53291 27.8835 6.58356C27.9057 7.88918 27.9052 9.75208 27.9052 11.1315C27.9083 11.7093 27.7942 12.2821 27.5698 12.8145C27.3454 13.3469 27.0154 13.828 26.5997 14.2292C25.9256 14.8683 25.0334 15.227 24.1045 15.2315C23.1756 15.236 22.2802 14.8861 21.5999 14.2536C21.5329 14.2048 21.4862 14.1328 21.4198 14.0834C20.8664 13.5588 20.5428 12.8366 20.5195 12.0744C20.4741 10.6706 20.3847 8.37276 20.3399 6.7992C20.303 5.71044 20.5104 4.62727 20.9475 3.6294C20.9923 3.5329 21.0373 3.45924 21.0827 3.36331C21.2447 3.00538 21.2971 2.60726 21.2329 2.21967C21.1688 1.83209 20.991 1.47246 20.7224 1.1858C20.0843 0.51011 19.2039 0.115083 18.2749 0.0876251C17.3459 0.0601673 16.4439 0.402629 15.767 1.03945C15.767 1.065 15.7442 1.06496 15.7221 1.08824C15.4655 1.33121 15.2877 1.64569 15.2115 1.99073C15.1353 2.33577 15.1643 2.69563 15.2947 3.02404C15.4082 3.36464 15.5642 3.72566 15.6772 4.06512C15.9537 4.79173 16.0992 5.56168 16.1057 6.33909V10.5965C16.1077 11.7807 15.7885 12.9432 15.1822 13.9604C14.9282 14.4125 14.5538 14.7853 14.1006 15.0375C13.6474 15.2896 13.133 15.411 12.6149 15.3884C12.0936 15.3556 11.5905 15.1834 11.1587 14.8895C10.7268 14.5955 10.382 14.1911 10.1603 13.7181C9.76616 12.8818 9.19277 12.1428 8.48056 11.5534C7.76836 10.9639 6.93496 10.5385 6.03974 10.3077C4.55304 9.94385 2.75143 9.50959 1.44524 9.1724C1.25132 9.13734 1.05164 9.14964 0.863722 9.20898C0.675805 9.26833 0.505083 9.3727 0.366465 9.51277C0.217985 9.66286 0.109464 9.84778 0.0504829 10.0505C-0.00849849 10.2532 -0.0159189 10.4673 0.028863 10.6736C0.0958469 11.0607 0.163066 11.5204 0.255594 12.004C1.13376 16.8922 4.49004 20.8364 8.94844 22.192C9.1755 22.2641 9.37611 22.3361 9.60147 22.4093C15.5471 24.2258 19.2855 30.4905 18.3619 37.0487C17.6637 42.1054 16.8758 47.5982 16.4705 50.5983C16.366 51.3069 16.4036 52.0292 16.5814 52.7231C16.7591 53.4169 17.0737 54.0684 17.506 54.6395L17.5016 54.6606Z" fill="#4F3499"/>
<path fill-rule="evenodd" clip-rule="evenodd" d="M33.8077 45.8764C33.8077 45.8764 29.5298 36.2704 32.4119 34.6934C33.1296 34.3523 33.9494 34.2917 34.7097 34.5232C36.1288 34.8859 37.7038 33.4341 38.1993 32.0303C38.1993 32.0303 37.7272 34.7155 35.565 35.8531C33.4034 37.0202 38.9655 40.6732 33.8077 45.8764Z" fill="#4F3499"/>
<path fill-rule="evenodd" clip-rule="evenodd" d="M14.1291 45.877C14.1291 45.877 18.4081 36.2704 15.5255 34.6969C14.8078 34.3554 13.9884 34.2947 13.2282 34.5266C11.809 34.8893 10.2332 33.4378 9.73764 32.034C9.73764 32.034 10.2105 34.7196 12.3721 35.8572C14.5366 37.0215 8.97357 40.6744 14.1291 45.877Z" fill="#4F3499"/>
<path d="M35.2026 32.4309C33.4533 32.9346 31.7534 32.2154 31.4061 30.8238C31.0589 29.4321 32.1943 27.8946 33.9449 27.3911C35.6955 26.8877 37.3936 27.6067 37.741 28.9989C38.0884 30.3911 36.952 31.9272 35.2026 32.4309Z" fill="#4F3499"/>
<path d="M13.9837 27.3955C15.7331 27.8992 16.8699 29.436 16.5225 30.8281C16.1751 32.2203 14.4764 32.9351 12.7267 32.4325C10.977 31.9299 9.84056 30.392 10.1878 29.0004C10.5351 27.6088 12.2346 26.8889 13.9837 27.3955Z" fill="#4F3499"/>
<path fill-rule="evenodd" clip-rule="evenodd" d="M31.6232 31.1594C31.6232 31.1594 30.3546 29.2015 33.615 27.3482C34.3884 26.9009 35.2835 26.7098 36.1721 26.8023C37.5725 27.0083 39.9018 27.2504 40.7795 27.074C39.2497 27.6857 37.6432 28.0847 36.005 28.2599C35.2633 28.3274 34.5461 28.5597 33.9058 28.9399C32.9828 29.4923 32.2013 30.2523 31.6232 31.1594Z" fill="#4F3499"/>
<path fill-rule="evenodd" clip-rule="evenodd" d="M16.3258 31.159C16.3258 31.159 17.5943 29.2016 14.3338 27.3483C13.5604 26.901 12.6653 26.7099 11.7767 26.8024C10.3765 27.0079 8.04666 27.2522 7.16797 27.0749C8.69811 27.6864 10.3049 28.085 11.9433 28.2599C12.685 28.3274 13.4022 28.5597 14.0425 28.9399C14.9657 29.4921 15.7475 30.2519 16.3258 31.159Z" fill="#4F3499"/>
<path fill-rule="evenodd" clip-rule="evenodd" d="M26.4066 54.2506C26.8259 53.5285 27.1728 52.7669 27.4422 51.9766C27.6738 51.2082 27.8469 50.4235 27.9599 49.6289C27.5602 50.2703 27.1086 50.8779 26.6095 51.4455C26.1366 51.9622 25.6078 52.4246 25.033 52.8248C24.8566 53.0265 24.7617 53.2863 24.7658 53.5543C24.7698 53.8223 24.8727 54.0792 25.0551 54.2755C25.1408 54.371 25.2463 54.4472 25.3639 54.4984C25.4815 54.5495 25.6088 54.5745 25.737 54.5721C25.8652 54.5697 25.9911 54.54 26.1067 54.4845C26.2224 54.429 26.3246 54.3491 26.4066 54.2506Z" fill="white"/>
<path fill-rule="evenodd" clip-rule="evenodd" d="M22.9968 52.7253C22.3941 52.4341 21.8574 52.0226 21.4198 51.5161C20.9448 50.9312 20.53 50.2998 20.1817 49.6315C20.244 50.6128 20.441 51.5808 20.767 52.5084C21.0138 53.1766 21.3717 53.7982 21.8257 54.3471C21.923 54.4308 22.0368 54.4932 22.1597 54.5303C22.2826 54.5673 22.4119 54.5782 22.5393 54.5621C22.6667 54.5461 22.7893 54.5035 22.8992 54.4371C23.0091 54.3707 23.1038 54.282 23.1773 54.1768C23.3325 53.9555 23.4 53.6844 23.3667 53.4162C23.3333 53.148 23.2015 52.9017 22.9968 52.7253Z" fill="white"/>
</svg>
